<?xml version="1.0" standalone="no"?>
<!DOCTYPE svg PUBLIC "-//W3C//DTD SVG 20010904//EN"
 "http://www.w3.org/TR/2001/REC-SVG-20010904/DTD/svg10.dtd">
<svg version="1.0" xmlns="http://www.w3.org/2000/svg"
 width="700.000000pt" height="700.000000pt" viewBox="0 0 700.000000 700.000000"
 preserveAspectRatio="xMidYMid meet">
<metadata>
Created by potrace 1.14, written by Peter Selinger 2001-2017
</metadata>
<g transform="translate(0.000000,700.000000) scale(0.100000,-0.100000)"
fill="#000000" stroke="none">
<path d="M844 6985 c-353 -64 -652 -314 -780 -653 -23 -59 -34 -100 -52 -190
-9 -45 -10 -5310 -1 -5367 29 -188 120 -363 260 -503 121 -122 247 -194 434
-249 57 -17 209 -18 2770 -20 l2710 -2 102 24 c350 81 612 348 693 705 19 83
19 155 19 2770 -1 2853 2 2715 -45 2870 -21 69 -84 188 -137 260 -111 150
-304 286 -467 330 -47 13 -57 15 -130 30 -27 5 -1111 9 -2675 9 -2093 -1
-2644 -3 -2701 -14z m2068 -2852 c3 -1039 5 -1133 21 -1186 30 -101 69 -169
137 -238 110 -111 236 -158 430 -158 195 0 319 45 429 156 92 93 143 207 155
348 3 28 5 535 5 1128 l1 1077 534 0 535 0 -3 -1122 c-2 -618 -6 -1136 -9
-1153 -2 -16 -8 -50 -11 -75 -10 -67 -52 -228 -77 -296 -92 -253 -238 -444
-466 -615 -149 -112 -383 -203 -578 -225 -27 -3 -56 -7 -63 -10 -78 -25 -625
-25 -812 0 -14 2 -54 7 -90 11 -185 19 -362 66 -494 132 -239 118 -485 379
-582 616 -36 90 -98 320 -109 408 -4 29 -9 61 -12 73 -4 12 -7 524 -9 1139
l-3 1117 534 0 535 0 2 -1127z"/>
</g>
</svg>
